<?xml version="1.0" encoding="utf-8"?>
<!-- Generator: Adobe Illustrator 25.4.1, SVG Export Plug-In . SVG Version: 6.00 Build 0)  -->
<svg version="1.1" id="Layer_1" xmlns="http://www.w3.org/2000/svg" xmlns:xlink="http://www.w3.org/1999/xlink" x="0px" y="0px"
	 viewBox="0 0 58 60" style="enable-background:new 0 0 58 60;" xml:space="preserve">
<style type="text/css">
	.st0{fill-rule:evenodd;clip-rule:evenodd;fill:#FFFFFF;}
</style>
<path class="st0" d="M33.3,17.5c0,1.7,0.7,3.3,2,4.6c1.8,1.8,3.8,2,5.1,1.9c1.6-0.1,3.2-0.9,4.3-1.9l0.3-0.3
	c0.8-0.8,1.3-1.3,1.8-1.8l3.3,3.2l2.3-2.3l0-0.1l-3.3-3.2l2.3-2.3L49,12.8l-2.3,2.3c0,0-6.8-6.8-7.6-7.6c-0.5-0.5-0.7-0.9-0.7-1.7
	c0-0.8,0.4-1.3,0.7-1.7c0.5-0.5,1.1-0.7,1.7-0.7c0.9,0,1.5,0.5,1.7,0.7l0.1,0.1l0.1,0L44,2.8l1-0.9l0,0l-0.1-0.1
	c-0.6-0.6-2-1.7-4.1-1.7c-1.6,0-3.1,0.6-4.2,1.8c-1,1.1-1.6,2.5-1.6,4c0,2.4,1.4,3.9,2.4,4.8l-2.1,2C34,13.8,33.3,15.7,33.3,17.5z
	 M37.7,15.1l2-2l4.6,4.5c-0.2,0.2-1.1,1.1-2.1,2.1c-1.2,1.2-3.1,1.4-4.6,0c-0.6-0.6-0.9-1.4-0.9-2.2C36.7,16.5,37.1,15.7,37.7,15.1z
	 M52.6,31.8c-3.1-3.1-7.3-4.8-11.7-4.8c-4.4,0-8.6,1.7-11.7,4.8c-3.1,3.1-4.9,7.2-4.9,11.6c0,4.4,1.7,8.5,4.9,11.6
	c3.1,3.1,7.3,4.8,11.7,4.8c4.4,0,8.6-1.7,11.7-4.8c3.1-3.1,4.9-7.2,4.9-11.6C57.5,39.1,55.7,35,52.6,31.8z M40.9,55.7
	c-3.3,0-6.4-1.3-8.7-3.6c-2.3-2.3-3.6-5.4-3.6-8.6c0-3.3,1.3-6.3,3.6-8.6c2.3-2.3,5.4-3.6,8.7-3.6c3.3,0,6.4,1.3,8.7,3.6
	c2.3,2.3,3.6,5.4,3.6,8.6C53.2,50.2,47.7,55.7,40.9,55.7z M24.3,19.7c0,7-3.9,13.4-10.1,16.7c1.8,1.1,3.3,2.7,4.3,4.5
	c1.1,1.9,1.7,4.1,1.7,6.3c0,3.4-1.3,6.6-3.8,9C14,58.7,10.7,60,7.3,60H1L1,0.8h4.2c5.1,0,9.9,2,13.5,5.5
	C22.3,9.9,24.3,14.7,24.3,19.7z M15.7,9.4C12.9,6.6,9.2,5.1,5.3,5.1v29.4c3.9,0,7.6-1.5,10.4-4.3c2.8-2.8,4.3-6.5,4.3-10.4
	C20,15.8,18.5,12.1,15.7,9.4z M5.3,55.8h2c4.7,0,8.6-3.8,8.6-8.5c0-2.3-0.9-4.4-2.5-6c-1.6-1.6-3.8-2.5-6.1-2.5c0,0-1.7,0-2,0V55.8z
	"/>
</svg>
