<?xml version="1.0" encoding="utf-8"?>
<!-- Generator: Adobe Illustrator 25.4.1, SVG Export Plug-In . SVG Version: 6.00 Build 0)  -->
<svg version="1.1" id="Layer_1" xmlns="http://www.w3.org/2000/svg" xmlns:xlink="http://www.w3.org/1999/xlink" x="0px" y="0px"
	 viewBox="0 0 32 32" style="enable-background:new 0 0 32 32;" xml:space="preserve">
<style type="text/css">
	.st0{fill:#FFFFFF;filter:url(#Adobe_OpacityMaskFilter);stroke:#FFFFFF;stroke-width:1.6;}
	.st1{mask:url(#mask0_7027_12771_00000050662765373998038130000010115087315663003304_);}
	.st2{fill:none;stroke:#FFFFFF;stroke-width:1.6;}
	.st3{fill:#FFFFFF;filter:url(#Adobe_OpacityMaskFilter_00000041262419974023175470000002011603264145097373_);}
	.st4{mask:url(#mask1_7027_12771_00000179633533227567001580000005637631250847374241_);}
</style>
<defs>
	<filter id="Adobe_OpacityMaskFilter" filterUnits="userSpaceOnUse" x="6" y="14" width="20" height="12">
		<feColorMatrix  type="matrix" values="1 0 0 0 0  0 1 0 0 0  0 0 1 0 0  0 0 0 1 0"/>
	</filter>
</defs>
<mask maskUnits="userSpaceOnUse" x="6" y="14" width="20" height="12" id="mask0_7027_12771_00000050662765373998038130000010115087315663003304_">
	<path class="st0" d="M6.4,12l2,11.7h15.1l2-11.7H28v14H4V12H6.4z"/>
</mask>
<g class="st1">
	<path class="st2" d="M8.7,25.2L6.9,14.8h18.1l-1.7,10.4H8.7z"/>
</g>
<defs>
	
		<filter id="Adobe_OpacityMaskFilter_00000172400555447938280700000017243650257503952300_" filterUnits="userSpaceOnUse" x="10.2" y="6.2" width="11.6" height="11.6">
		<feColorMatrix  type="matrix" values="1 0 0 0 0  0 1 0 0 0  0 0 1 0 0  0 0 0 1 0"/>
	</filter>
</defs>
<mask maskUnits="userSpaceOnUse" x="10.2" y="6.2" width="11.6" height="11.6" id="mask1_7027_12771_00000179633533227567001580000005637631250847374241_">
	
		<rect x="6" y="6" style="fill:#FFFFFF;filter:url(#Adobe_OpacityMaskFilter_00000172400555447938280700000017243650257503952300_);" width="20" height="6"/>
</mask>
<g class="st4">
	<path class="st2" d="M16,17c2.8,0,5-2.2,5-5c0-2.8-2.2-5-5-5s-5,2.2-5,5C11,14.8,13.2,17,16,17z"/>
</g>
</svg>
