<?xml version="1.0" encoding="utf-8"?>
<!-- Generator: Adobe Illustrator 25.2.3, SVG Export Plug-In . SVG Version: 6.00 Build 0)  -->
<svg version="1.1" id="Layer_1" xmlns="http://www.w3.org/2000/svg" xmlns:xlink="http://www.w3.org/1999/xlink" x="0px" y="0px"
	 viewBox="0 0 50 27.3" style="enable-background:new 0 0 50 27.3;" xml:space="preserve">
<style type="text/css">
	.st0{fill:#FFFFFF;}
	.st1{font-family:'Multicolore';}
	.st2{font-size:13.1722px;}
</style>
<path class="st0" d="M48.5,3H7.1C6.3,3,5.6,2.3,5.6,1.5v0C5.6,0.7,6.3,0,7.1,0h41.3C49.3,0,50,0.7,50,1.5v0C50,2.3,49.3,3,48.5,3z"
	/>
<path class="st0" d="M48.5,27.3H22.7c-0.8,0-1.5-0.7-1.5-1.5v0c0-0.8,0.7-1.5,1.5-1.5h25.8c0.8,0,1.5,0.7,1.5,1.5v0
	C50,26.6,49.3,27.3,48.5,27.3z"/>
<path class="st0" d="M48.5,15.2h-47c-0.8,0-1.5-0.7-1.5-1.5v0c0-0.8,0.7-1.5,1.5-1.5h47c0.8,0,1.5,0.7,1.5,1.5v0
	C50,14.5,49.3,15.2,48.5,15.2z"/>
<text transform="matrix(1 0 0 1 4.71 27.3026)" class="st0 st1 st2">M</text>
</svg>
