<svg xmlns="http://www.w3.org/2000/svg" viewBox="0 0 50.02 27.33"><defs><style>.cls-1{fill:#fff;}.cls-2{fill:#1d1d1b;}</style></defs><g id="Layer_2" data-name="Layer 2"><g id="Layer_1-2" data-name="Layer 1"><line class="cls-1" x1="7.89" y1="2.42" x2="47.6" y2="2.42"/><path class="cls-2" d="M47.6,4.84H7.89A2.42,2.42,0,0,1,7.89,0H47.6a2.42,2.42,0,1,1,0,4.84Z"/><line class="cls-1" x1="2.42" y1="13.66" x2="47.6" y2="13.66"/><path class="cls-2" d="M47.6,16.08H2.42a2.42,2.42,0,1,1,0-4.83H47.6a2.42,2.42,0,1,1,0,4.83Z"/><line class="cls-1" x1="23.32" y1="24.91" x2="47.9" y2="24.91"/><path class="cls-2" d="M47.9,27.33H23.32a2.28,2.28,0,0,1-2.11-2.42,2.28,2.28,0,0,1,2.11-2.42H47.9A2.28,2.28,0,0,1,50,24.91,2.28,2.28,0,0,1,47.9,27.33Z"/><path d="M7.49,18.06a1,1,0,0,1,.94.63l2.13,5.2h.1l2.14-5.2a1,1,0,0,1,.94-.63h1a1,1,0,0,1,1,1v7.23a1,1,0,0,1-1,1h-.09a1,1,0,0,1-1-1V21.57h-.07l-2,5.06a1,1,0,0,1-1,.64h0a1,1,0,0,1-.94-.64l-2-5.09H7.6v4.77a1,1,0,0,1-1,1H6.49a1,1,0,0,1-1-1V19.08a1,1,0,0,1,1-1Z"/></g></g></svg>