<?xml version="1.0" encoding="utf-8"?>
<!-- Generator: Adobe Illustrator 25.4.1, SVG Export Plug-In . SVG Version: 6.00 Build 0)  -->
<svg version="1.1" id="Layer_1" xmlns="http://www.w3.org/2000/svg" xmlns:xlink="http://www.w3.org/1999/xlink" x="0px" y="0px"
	 viewBox="0 0 32 32" style="enable-background:new 0 0 32 32;" xml:space="preserve">
<style type="text/css">
	.st0{fill-rule:evenodd;clip-rule:evenodd;fill:#FFFFFF;}
</style>
<path class="st0" d="M13.8,11c0-1.2,1-2.2,2.2-2.2s2.2,1,2.2,2.2c0,1.2-1,2.2-2.2,2.2S13.8,12.2,13.8,11z M16,7.2
	c-2.1,0-3.8,1.7-3.8,3.8c0,2.1,1.7,3.8,3.8,3.8s3.8-1.7,3.8-3.8C19.8,8.9,18.1,7.2,16,7.2z M16.2,16.1c-4.9,0-8.9,4-8.9,8.9
	c0,0.4,0.3,0.8,0.8,0.8h16.3c0.4,0,0.8-0.3,0.8-0.8C25.1,20.1,21.1,16.1,16.2,16.1z M16.2,17.6c3.8,0,7,2.9,7.4,6.7H8.8
	C9.2,20.5,12.3,17.6,16.2,17.6z"/>
</svg>
