<?xml version="1.0" encoding="utf-8"?>
<!-- Generator: Adobe Illustrator 25.4.1, SVG Export Plug-In . SVG Version: 6.00 Build 0)  -->
<svg version="1.1" id="Layer_1" xmlns="http://www.w3.org/2000/svg" xmlns:xlink="http://www.w3.org/1999/xlink" x="0px" y="0px"
	 viewBox="0 0 32 32" style="enable-background:new 0 0 32 32;" xml:space="preserve">
<style type="text/css">
	.st0{fill-rule:evenodd;clip-rule:evenodd;fill:#FFFFFF;}
	.st1{fill:none;stroke:#FFFFFF;stroke-width:1.5;}
</style>
<path class="st0" d="M16,16c1.1,0,2-0.9,2-2s-0.9-2-2-2s-2,0.9-2,2S14.9,16,16,16z"/>
<path class="st1" d="M16.7,24.2c-0.3,0.3-0.5,0.5-0.7,0.7c-0.2-0.2-0.4-0.4-0.7-0.7c-0.7-0.8-1.7-1.8-2.7-3c-1-1.2-2-2.5-2.7-3.8
	c-0.7-1.3-1.2-2.5-1.2-3.4c0-4,3.2-7.3,7.2-7.3s7.2,3.2,7.2,7.3c0,0.9-0.4,2.1-1.2,3.4c-0.7,1.3-1.7,2.6-2.7,3.8
	C18.4,22.4,17.5,23.5,16.7,24.2z"/>
</svg>
